<?xml version="1.0" encoding="utf-8"?>
<!-- Generator: Adobe Illustrator 26.0.3, SVG Export Plug-In . SVG Version: 6.00 Build 0)  -->
<svg version="1.1" id="Camada_1" xmlns="http://www.w3.org/2000/svg" xmlns:xlink="http://www.w3.org/1999/xlink" x="0px" y="0px"
	 viewBox="0 0 370.81 77.65" style="enable-background:new 0 0 370.81 77.65;" xml:space="preserve">
<style type="text/css">
	.st0{fill:#ffffff;}
</style>
<g>
	<polygon class="st0" points="169.13,19.99 169.13,0 156.47,0 156.47,77.64 169.13,77.64 169.13,32.65 181.74,32.65 189,19.99 	"/>
	<path class="st0" d="M342,19.99c-6,0-11.57,1.83-16.18,4.96V0h-12.66v77.64h12.66V49.35c0-8.9,6.96-16.54,15.86-16.7
		c9.07-0.17,16.47,7.13,16.47,16.16v28.82h12.66V49.58C370.81,33.73,357.85,20,342,19.99"/>
	<path class="st0" d="M118.14,19.99c-15.92,0-28.83,12.91-28.83,28.83c0,15.92,12.91,28.83,28.83,28.83s28.83-12.91,28.83-28.83
		C146.97,32.9,134.07,19.99,118.14,19.99 M120.25,64.85c-10.58,1.33-19.47-7.56-18.14-18.14c0.91-7.2,6.73-13.02,13.93-13.93
		c10.57-1.33,19.47,7.56,18.14,18.14C133.27,58.12,127.45,63.94,120.25,64.85"/>
	<path class="st0" d="M56.96,42.48c-2.88-12.88-14.38-22.5-28.13-22.5C12.92,19.98,0,32.89,0,48.81c0,15.92,12.91,28.83,28.83,28.83
		h14.04l7.26-12.66h-21.3c-8.93,0-16.16-7.24-16.16-16.16c0-4.46,1.81-8.51,4.73-11.43c2.93-2.93,6.97-4.74,11.43-4.74
		c6.68,0,12.41,4.06,14.89,9.84c0.11,0.26,0.19,0.53,0.29,0.79H28.83c-1.53,0-2.92,0.62-3.92,1.63c-0.99,1.01-1.62,2.39-1.62,3.91
		c0,3.06,2.47,5.54,5.54,5.54h28.29c0.35-1.8,0.54-3.65,0.54-5.54C57.66,46.63,57.42,44.51,56.96,42.48"/>
	<path class="st0" d="M245.96,42.48c-2.88-12.88-14.38-22.5-28.13-22.5c-15.91,0-28.83,12.9-28.83,28.83
		c0,15.92,12.91,28.83,28.83,28.83h14.04l7.26-12.66h-21.31c-8.93,0-16.16-7.24-16.16-16.16c0-4.46,1.81-8.51,4.73-11.43
		c2.93-2.93,6.97-4.74,11.43-4.74c6.68,0,12.41,4.06,14.89,9.84c0.11,0.26,0.19,0.53,0.29,0.79h-15.18c-1.53,0-2.92,0.62-3.92,1.63
		c-0.99,1.01-1.62,2.39-1.62,3.91c0,3.06,2.48,5.54,5.54,5.54h28.29c0.35-1.8,0.55-3.65,0.55-5.54
		C246.66,46.63,246.42,44.51,245.96,42.48"/>
	<path class="st0" d="M268.82,48.82c0-8.93,7.25-16.17,16.17-16.17h11.4l7.26-12.66h-18.66c-15.93,0-28.83,12.9-28.83,28.83
		c0,15.91,12.9,28.82,28.83,28.82h11.4l7.26-12.66h-18.66C276.06,64.98,268.82,57.75,268.82,48.82"/>
	<rect x="67.16" y="0" class="st0" width="12.66" height="77.64"/>
</g>
</svg>